<svg xmlns="http://www.w3.org/2000/svg" width="140" height="40" fill="none"><path fill="#fff" d="M31.53 14.212c0 4.67-2.768 8.696-6.75 10.523a7.577 7.577 0 0 0-4.667-13.415c-.056-.003-.105-.003-.16-.003-.055 0-.104 0-.16.003a2.894 2.894 0 0 0-2.734 2.89v14.471a8.684 8.684 0 0 1-8.683 8.683V14.212c0-6.393 5.184-11.577 11.577-11.577 6.392 0 11.576 5.184 11.576 11.577Z"/><path fill="#fff" d="M22 16.258a2.894 2.894 0 1 0-4.094-4.092A2.894 2.894 0 0 0 22 16.258ZM56.426 22.82v-2.84h2.62c.507 0 .94-.1 1.3-.3.373-.2.66-.48.86-.84.2-.373.3-.8.3-1.28 0-.507-.1-.94-.3-1.3a1.94 1.94 0 0 0-.86-.84c-.36-.2-.793-.3-1.3-.3h-2.62v-2.84h2.46c1.24 0 2.3.207 3.18.62.893.413 1.573 1 2.04 1.76.48.76.72 1.673.72 2.74v.32c0 1.04-.24 1.947-.72 2.72-.467.76-1.147 1.347-2.04 1.76-.88.413-1.94.62-3.18.62h-2.46ZM53.546 27V12.28h3.28V27h-3.28Zm17.643.38c-.933 0-1.76-.16-2.48-.48a5.3 5.3 0 0 1-1.78-1.28 6.145 6.145 0 0 1-1.08-1.82 6.207 6.207 0 0 1-.36-2.08v-.4c0-.733.12-1.433.36-2.1a5.826 5.826 0 0 1 1.08-1.82 4.92 4.92 0 0 1 1.74-1.26c.707-.32 1.507-.48 2.4-.48 1.173 0 2.16.267 2.96.8a5.127 5.127 0 0 1 1.86 2.06c.427.84.64 1.76.64 2.76v1.08h-9.7v-1.82h7.76l-1.04.84c0-.653-.093-1.213-.28-1.68-.187-.467-.467-.82-.84-1.06-.36-.253-.813-.38-1.36-.38-.56 0-1.033.127-1.42.38s-.68.627-.88 1.12c-.2.48-.3 1.073-.3 1.78 0 .653.093 1.227.28 1.72.187.48.48.853.88 1.12.4.267.92.4 1.56.4.587 0 1.067-.113 1.44-.34.373-.227.627-.507.76-.84h2.94a4.62 4.62 0 0 1-.94 1.96 4.766 4.766 0 0 1-1.76 1.34c-.707.32-1.52.48-2.44.48Zm7.06-.38V16.04h2.54v4.7h-.06c0-1.547.327-2.74.98-3.58.667-.84 1.627-1.26 2.88-1.26h.42v2.76h-.8c-.88 0-1.56.24-2.04.72-.48.467-.72 1.147-.72 2.04V27h-3.2Zm12.178.34c-1.56 0-2.78-.32-3.66-.96-.88-.64-1.346-1.54-1.4-2.7h2.84c.054.347.26.66.62.94.374.267.927.4 1.66.4.56 0 1.02-.093 1.38-.28.374-.2.56-.48.56-.84 0-.32-.14-.573-.42-.76-.28-.2-.78-.34-1.5-.42l-.86-.08c-1.32-.133-2.313-.5-2.98-1.1-.653-.6-.98-1.367-.98-2.3 0-.773.194-1.42.58-1.94.387-.52.92-.913 1.6-1.18.694-.267 1.48-.4 2.36-.4 1.414 0 2.554.313 3.42.94.867.613 1.32 1.507 1.36 2.68h-2.84c-.053-.36-.24-.66-.56-.9-.32-.253-.793-.38-1.42-.38-.493 0-.886.093-1.18.28-.293.187-.44.44-.44.76 0 .307.127.54.38.7.254.16.667.273 1.24.34l.86.08c1.347.147 2.394.52 3.14 1.12.747.6 1.12 1.407 1.12 2.42 0 .733-.2 1.373-.6 1.92-.4.533-.966.947-1.7 1.24-.733.28-1.593.42-2.58.42Zm11.894.04c-.96 0-1.814-.147-2.56-.44a5.726 5.726 0 0 1-1.9-1.24 5.406 5.406 0 0 1-1.16-1.78 5.81 5.81 0 0 1-.4-2.14v-.46c0-.76.133-1.48.4-2.16.28-.693.68-1.3 1.2-1.82a5.698 5.698 0 0 1 1.92-1.22c.746-.307 1.58-.46 2.5-.46.946 0 1.786.153 2.52.46.746.293 1.38.7 1.9 1.22s.92 1.127 1.2 1.82c.28.68.42 1.4.42 2.16v.46c0 .747-.134 1.46-.4 2.14a5.262 5.262 0 0 1-1.18 1.78c-.507.52-1.134.933-1.88 1.24-.747.293-1.607.44-2.58.44Zm0-2.7c.626 0 1.146-.133 1.56-.4.413-.267.726-.64.94-1.12a3.71 3.71 0 0 0 .34-1.6c0-.627-.114-1.173-.34-1.64a2.73 2.73 0 0 0-.98-1.14c-.414-.28-.92-.42-1.52-.42-.587 0-1.094.14-1.52.42a2.72 2.72 0 0 0-.98 1.14c-.214.467-.32 1.013-.32 1.64 0 .587.106 1.12.32 1.6.213.48.533.853.96 1.12.426.267.94.4 1.54.4Zm7.873 2.32V16.04h2.54v4.7h-.18c0-1.12.14-2.053.42-2.8.293-.747.733-1.307 1.32-1.68.587-.373 1.3-.56 2.14-.56h.14c1.28 0 2.253.42 2.92 1.26.68.827 1.02 2.087 1.02 3.78V27h-3.2v-6.44c0-.587-.173-1.067-.52-1.44-.347-.373-.813-.56-1.4-.56-.6 0-1.087.193-1.46.58-.36.373-.54.867-.54 1.48V27h-3.2Zm19.267 0v-3.24h-.54v-3.52c0-.56-.133-.98-.4-1.26s-.693-.42-1.28-.42a59.471 59.471 0 0 0-2.64.08c-.507.027-.967.053-1.38.08v-2.7c.307-.027.667-.053 1.08-.08a41.16 41.16 0 0 1 2.52-.08c1.12 0 2.06.16 2.82.48.773.32 1.36.807 1.76 1.46.4.64.6 1.467.6 2.48V27h-2.54Zm-3.5.28c-.787 0-1.48-.14-2.08-.42a3.27 3.27 0 0 1-1.38-1.2c-.333-.533-.5-1.167-.5-1.9 0-.8.207-1.453.62-1.96.413-.52.993-.9 1.74-1.14.747-.253 1.607-.38 2.58-.38h2.34v1.78h-2.36c-.56 0-.993.14-1.3.42-.293.267-.44.633-.44 1.1 0 .44.147.8.44 1.08.307.267.74.4 1.3.4.36 0 .68-.06.96-.18a1.63 1.63 0 0 0 .72-.66c.187-.307.293-.733.32-1.28l.76.8c-.067.76-.253 1.4-.56 1.92-.293.52-.707.92-1.24 1.2-.52.28-1.16.42-1.92.42Zm8.495-.28V12.4h3.22V27h-3.22Zm-1.3-12.24V12.4h4.52v2.36h-4.52Z"/></svg>